<svg width="35" height="40" viewBox="0 0 35 40" fill="none" xmlns="http://www.w3.org/2000/svg">
<g style="mix-blend-mode:multiply" opacity="0.16">
<path d="M21.3476 39.8321L33.7948 33.1716C33.8713 33.1308 33.9356 33.0707 33.9812 32.9974C34.0268 32.9242 34.0521 32.8403 34.0547 32.7543C34.0572 32.6683 34.0368 32.5831 33.9956 32.5074C33.9543 32.4316 33.8937 32.368 33.8197 32.3228L16.7349 21.9112C16.5278 21.7847 16.2911 21.7138 16.048 21.7054C15.8049 21.697 15.5637 21.7514 15.3483 21.8633L2.78967 28.3845C2.71218 28.4246 2.64681 28.4844 2.60019 28.5576C2.55357 28.6309 2.52737 28.715 2.52424 28.8015C2.52112 28.8881 2.54118 28.9739 2.58239 29.0502C2.6236 29.1266 2.6845 29.1908 2.75889 29.2363L19.939 39.79C20.1491 39.9196 20.3902 39.9918 20.6376 39.9991C20.885 40.0065 21.13 39.9489 21.3476 39.8321Z" fill="#7C5C32"/>
</g>
<path d="M18.1918 17.004L1.05859 6.68384V23.2378L18.2739 33.661L18.1918 17.004Z" fill="#A67D48"/>
<path d="M31.2302 10.8152L18.2729 17.6817L18.3067 33.6843L31.2625 26.8178L31.2302 10.8152Z" fill="#A67D48"/>
<path d="M31.2302 10.4839L18.2729 17.3504L18.3067 33.353L31.2625 26.485L31.2302 10.4839Z" fill="#B88A4D"/>
<g style="mix-blend-mode:multiply" opacity="0.21">
<path d="M26.755 12.8567L23.3618 14.6546V18.1285L24.3556 17.3609L24.5916 17.477L25.3611 16.8196L25.6469 16.9183L26.4252 16.2508L26.755 16.3306V12.8567Z" fill="#B88A4D"/>
</g>
<path d="M18.2578 16.9662L1.05859 6.68384V22.9941L18.2578 33.2765V16.9662Z" fill="#E6B273"/>
<path d="M18.2945 17.4058L31.2313 10.4841L14.0394 0L1 6.77948L18.2945 17.4058Z" fill="#E8BE8B"/>
<g style="mix-blend-mode:multiply" opacity="0.21">
<path d="M23.2817 14.6823L26.7673 12.7929L9.57687 2.30884L6.10156 4.12705L23.2817 14.6823Z" fill="#B88A4D"/>
</g>
<g style="mix-blend-mode:multiply" opacity="0.07">
<path d="M18.2578 16.9663C17.2669 26.6436 11.8861 29.4021 4.41811 24.2725L1.05859 22.9941L18.2578 33.2765V16.9663Z" fill="#8F775A"/>
</g>
<path d="M3.19561 12.5212V12.556C3.19713 12.6027 3.20941 12.6484 3.23151 12.6896C3.25362 12.7309 3.28496 12.7666 3.32313 12.794C3.39202 12.8361 3.44919 12.794 3.44919 12.7069V11.681C3.50294 11.7155 3.5548 11.7528 3.60456 11.7927L3.62948 11.813C3.67198 11.8479 3.71302 11.887 3.75553 11.9262L3.76726 11.9378C3.8919 11.9694 4.00418 12.0371 4.08972 12.1323C4.07716 11.9095 4.01233 11.6926 3.90039 11.4989C3.78844 11.3052 3.63245 11.14 3.44479 11.0164L3.36417 10.9685C3.28633 10.9242 3.20083 10.8947 3.11206 10.8814H3.09741C2.88194 10.8611 2.72217 10.9917 2.71484 11.2906V11.3182C2.83987 11.3483 2.95279 11.415 3.03878 11.5098H3.0505L3.09447 11.5214C3.11631 11.527 3.13784 11.5338 3.15897 11.5417C3.20247 11.5566 3.24505 11.574 3.28649 11.5939L3.31434 11.6084L3.36124 11.6331V12.659C3.36124 12.6924 3.34072 12.7055 3.3158 12.6909C3.30178 12.681 3.29025 12.6679 3.28212 12.6528C3.27399 12.6377 3.26946 12.621 3.2689 12.6039V12.5691L3.19561 12.5212Z" fill="#454545"/>
<path d="M4.95822 13.0816C4.85588 13.0084 4.77196 12.9129 4.71298 12.8024C4.654 12.6919 4.62155 12.5695 4.61816 12.4445V11.719L5.29681 12.1253V12.8508C5.29681 13.0903 5.14584 13.1947 4.95822 13.0816Z" fill="#454545"/>
<path d="M5.00005 13.797L4.91943 13.7491V13.0076L5.00005 13.0569V13.797Z" fill="#454545"/>
<path d="M4.66943 13.5994V13.4963L5.24841 13.8431V13.9462L4.66943 13.5994Z" fill="#454545"/>
<path d="M6.04351 14.099L5.96289 14.0511V12.5913L6.04351 12.6392V14.099Z" fill="#454545"/>
<path d="M5.86966 12.781L5.8125 12.675L6.00305 12.5444L6.05875 12.6518L5.86966 12.781Z" fill="#454545"/>
<path d="M6.13781 12.9418L6.19498 12.9026L6.00443 12.5457L5.94727 12.5848L6.13781 12.9418Z" fill="#454545"/>
<path d="M6.55571 14.4061L6.4751 14.3568V12.897L6.55571 12.9449V14.4061Z" fill="#454545"/>
<path d="M6.38334 13.0871L6.32764 12.9812L6.51672 12.8521L6.57388 12.958L6.38334 13.0871Z" fill="#454545"/>
<path d="M6.65197 13.2482L6.70914 13.209L6.51859 12.8521L6.46289 12.8912L6.65197 13.2482Z" fill="#454545"/>
<path d="M5.8125 14.283V14.1799L6.70661 14.7154V14.8184L5.8125 14.283Z" fill="#454545"/>
<path d="M16.9485 21.4238L13.3574 19.2776V16.1375L16.9485 18.2836V21.4238Z" fill="white"/>
<path d="M16.4552 19.1047L13.8491 17.5476V17.3198L16.4552 18.8783V19.1047Z" fill="#B5B5B5"/>
<path d="M16.4552 19.6374L13.8491 18.0789V17.8525L16.4552 19.411V19.6374Z" fill="#B5B5B5"/>
<path d="M14.9997 19.3006L13.8491 18.6114V18.385L14.9997 19.0728V19.3006Z" fill="#B5B5B5"/>
<path d="M17.11 30.8575L12.1353 27.8828V26.3127L17.11 29.2875V30.8575Z" fill="white"/>
<path d="M12.52 27.8392V26.8162L13.1283 27.1804V28.2034L12.52 27.8392Z" fill="#B5B5B5"/>
<path d="M12.665 27.9278V26.9033L12.709 26.9309V27.9539L12.665 27.9278Z" fill="#B5B5B5"/>
<path d="M12.813 28.0147V26.9917L12.8775 27.0294V28.0524L12.813 28.0147Z" fill="#B5B5B5"/>
<path d="M12.9585 28.1036V27.0791L13.0479 27.1328V28.1558L12.9585 28.1036Z" fill="#B5B5B5"/>
<path d="M13.1064 28.1903V27.1672L13.1519 27.1934V28.2164L13.1064 28.1903Z" fill="#B5B5B5"/>
<path d="M13.2529 28.2791V27.2546L13.6062 27.4665V28.4895L13.2529 28.2791Z" fill="#B5B5B5"/>
<path d="M13.4004 28.366V27.343L13.4605 27.3793V28.4023L13.4004 28.366Z" fill="#B5B5B5"/>
<path d="M13.5459 28.4532V27.4302L13.606 27.4665V28.4895L13.5459 28.4532Z" fill="#B5B5B5"/>
<path d="M13.6943 28.5408V27.5164L13.7662 27.5599V28.5829L13.6943 28.5408Z" fill="#B5B5B5"/>
<path d="M13.8389 28.6287V27.6057L14.349 27.9104V28.9349L13.8389 28.6287Z" fill="#B5B5B5"/>
<path d="M13.9868 28.7166V27.6921L14.0762 27.7458V28.7688L13.9868 28.7166Z" fill="#B5B5B5"/>
<path d="M14.1641 28.8228V27.7983L14.2227 27.8332V28.8576L14.1641 28.8228Z" fill="#B5B5B5"/>
<path d="M14.2803 28.8921V27.8677L14.3697 27.9214V28.9444L14.2803 28.8921Z" fill="#B5B5B5"/>
<path d="M16.7263 29.6591L14.8486 28.5374V28.3096L16.7263 29.4327V29.6591Z" fill="#B5B5B5"/>
<path d="M15.9289 29.7141L14.8486 29.0684V28.842L15.9289 29.4878V29.7141Z" fill="#B5B5B5"/>
<path opacity="0.12" d="M7.96094 3.15454L25.0048 13.8752" stroke="#7A3D23" stroke-width="0.5" stroke-miterlimit="10"/>
<path opacity="0.23" d="M1 6.77905L18.2945 17.4054" stroke="white" stroke-width="0.4" stroke-miterlimit="10"/>
<path opacity="0.28" d="M18.293 17.406V33.6843" stroke="white" stroke-width="0.4" stroke-miterlimit="10"/>
</svg>
