<svg width="127" height="21" viewBox="0 0 127 21" fill="none" xmlns="http://www.w3.org/2000/svg">
<path fill-rule="evenodd" clip-rule="evenodd" d="M0.156162 10.7355C0.255488 8.76785 0.636309 7.11356 1.29667 5.77619C1.78262 4.79241 2.43521 3.90724 3.23809 3.12578C4.04098 2.34432 4.90674 1.76351 5.834 1.38285C7.06976 0.875301 8.47985 0.619141 10.0615 0.619141C12.9264 0.619141 15.1713 1.50258 16.801 3.26955C18.4306 5.03666 19.1633 7.49668 19.0043 10.6457C18.8468 13.7677 17.8676 16.2109 16.077 17.9723C14.2837 19.7361 11.9576 20.6182 9.10622 20.6182C6.21873 20.6182 3.96343 19.7406 2.34794 17.9858C0.734478 16.2334 0.000566125 13.8171 0.156162 10.7355ZM4.2026 10.6052C4.09209 12.7929 4.51865 14.452 5.4788 15.5825C6.43698 16.7105 7.70245 17.2761 9.26595 17.2761C10.8341 17.2761 12.1486 16.7161 13.2099 15.596C14.2714 14.4757 14.8562 12.7929 14.9693 10.5513C15.0812 8.33668 14.6734 6.68505 13.7507 5.59647C12.8279 4.50761 11.5603 3.9613 9.93793 3.9613C8.32019 3.9613 6.9848 4.51353 5.94123 5.61445C4.8954 6.71796 4.31478 8.38158 4.2026 10.6052Z" fill="white"/>
<path fill-rule="evenodd" clip-rule="evenodd" d="M19.4731 20.2379L24.1268 14.067L20.2635 8.25781H24.1491L26.1114 11.551L28.5378 8.25781H32.2684L27.8991 13.9324L32.0354 20.2379H28.1537L25.8603 16.5253L23.2039 20.2379H19.4731Z" fill="white"/>
<path fill-rule="evenodd" clip-rule="evenodd" d="M37.9893 20.241L38.8235 3.71362H42.0047L41.5621 12.4813L45.502 8.26093H49.4262L45.0952 12.639L49.1234 20.241H45.6868L42.9178 14.8358L41.364 16.4053L41.1704 20.241H37.9893Z" fill="white"/>
<path fill-rule="evenodd" clip-rule="evenodd" d="M53.0505 11.9534L50.1969 11.4456C50.581 10.2761 51.1867 9.4096 52.0075 8.84878C52.8285 8.28789 54.0239 8.0061 55.5873 8.0061C57.0077 8.0061 58.0608 8.1716 58.7393 8.50629C59.4149 8.83946 59.8861 9.26509 60.1418 9.77978C60.3976 10.2946 60.5111 11.2394 60.4244 12.6151L60.1915 16.3084C60.1255 17.3569 60.1504 18.1366 60.225 18.6358C60.2996 19.1352 60.4631 19.6708 60.713 20.2402H57.555C56.8292 18.1099 57.3052 19.3415 55.4005 20.1402C54.7689 20.4049 54.1032 20.5402 53.4027 20.5402C52.1681 20.5402 51.2101 20.2038 50.5315 19.5362C49.8548 18.8704 49.5396 18.0242 49.5914 17.0009C49.6254 16.3275 49.8184 15.7224 50.1702 15.1927C50.5202 14.6659 50.9965 14.2579 51.5978 13.977C52.1959 13.6977 53.0528 13.4458 54.1661 13.2383C55.6649 12.9588 56.7126 12.6997 57.2975 12.4612L57.3135 12.1419C57.3446 11.5263 57.2171 11.0849 56.9274 10.8222C56.6376 10.5594 56.0687 10.4299 55.2289 10.4299C54.66 10.4299 54.2138 10.5445 53.8844 10.7685C53.5542 10.993 53.2766 11.3878 53.0505 11.9534ZM57.1937 14.5155C56.7806 14.6502 56.1252 14.8122 55.2304 15.0003C54.3392 15.1877 53.7434 15.3674 53.4688 15.5505C53.0362 15.8391 52.8122 16.216 52.7894 16.6662C52.7669 17.1125 52.915 17.4941 53.2307 17.8164C53.5464 18.1388 53.9608 18.3012 54.4756 18.3012C55.0482 18.3012 55.6121 18.1176 56.1487 17.7395C56.5494 17.4573 56.8182 17.1035 56.9602 16.6893C57.0523 16.4202 57.1237 15.9044 57.1619 15.1465L57.1937 14.5155Z" fill="white"/>
<path fill-rule="evenodd" clip-rule="evenodd" d="M65.1821 20.2389H62.001L62.6057 8.25875H65.5546L65.4688 9.95917C66.0163 9.15511 66.5013 8.81415 66.9185 8.56571C67.3359 8.31728 67.8004 8.25846 68.315 8.25846C69.0882 8.25846 68.6039 8.25629 69.398 8.2599L68.3707 10.7767C67.8191 10.7717 68.2531 10.7763 67.7926 10.7763C67.3436 10.7763 66.9558 10.9678 66.6364 11.2098C66.3151 11.4532 66.0467 11.8961 65.8381 12.5332C65.6295 13.1703 65.4711 14.5134 65.3685 16.5458L65.1821 20.2389Z" fill="white"/>
<path fill-rule="evenodd" clip-rule="evenodd" d="M32.2682 8.2581L28.5287 8.25781L26.1113 11.551L24.1491 8.25781H20.2635L24.1267 14.067L19.4731 20.2379H23.2038L25.8603 16.5253L28.1536 20.2379H32.0353L27.8991 13.9324L32.2682 8.2581Z" fill="white"/>
<path fill-rule="evenodd" clip-rule="evenodd" d="M97.2433 20.3185H94.0419L94.3256 14.202C94.3857 12.907 94.3543 12.0707 94.2355 11.693C94.113 11.3115 93.9047 11.0185 93.6029 10.8066C93.3012 10.5946 92.9321 10.4905 92.4959 10.4905C91.9351 10.4905 91.4257 10.6408 90.9678 10.9415C90.506 11.2421 90.1836 11.6429 89.9971 12.1363C89.8066 12.6334 89.6822 13.5507 89.62 14.8919L89.3684 20.3185H86.167L86.7237 8.31684H89.6914L89.6096 10.0781C90.7353 8.7331 92.1022 8.0625 93.7185 8.0625C94.4273 8.0625 95.0718 8.18967 95.6482 8.44019C96.2284 8.69454 96.6576 9.01436 96.9394 9.40368C97.225 9.79676 97.4148 10.24 97.5085 10.7372C97.6062 11.2344 97.6317 11.9435 97.5888 12.8685L97.2433 20.3185Z" fill="white"/>
<path fill-rule="evenodd" clip-rule="evenodd" d="M110.123 20.3186H107.155L107.237 18.5573C106.71 19.2433 106.099 19.7559 105.409 20.1027C104.719 20.4458 104.029 20.6192 103.344 20.6192C101.946 20.6192 100.776 20.0642 99.8304 18.9504C98.889 17.8366 98.4624 16.2872 98.5548 14.2947C98.6492 12.2597 99.204 10.7103 100.223 9.65047C101.242 8.59062 102.489 8.06265 103.969 8.06265C105.325 8.06265 106.475 8.62144 107.412 9.73527L107.689 3.76147H110.891L110.123 20.3186ZM101.859 14.0866C101.8 15.3699 101.936 16.2988 102.264 16.873C102.743 17.7055 103.444 18.1218 104.371 18.1218C105.107 18.1218 105.749 17.8096 106.292 17.1852C106.839 16.5609 107.139 15.632 107.196 14.391C107.26 13.0074 107.057 12.013 106.583 11.4041C106.109 10.7951 105.484 10.4907 104.702 10.4907C103.942 10.4907 103.293 10.7913 102.751 11.3925C102.213 11.9938 101.915 12.8918 101.859 14.0866Z" fill="white"/>
<path fill-rule="evenodd" clip-rule="evenodd" d="M111.85 6.69827L115.188 3.76147L115.051 6.69827H111.85ZM111.218 20.3186L111.775 8.317H114.976L114.42 20.3186H111.218Z" fill="white"/>
<path fill-rule="evenodd" clip-rule="evenodd" d="M77.0965 8.26044L76.9695 10.7765H74.7867L74.5419 15.6278C74.4923 16.6092 74.4843 17.1876 74.5169 17.3474C74.5498 17.5073 74.6389 17.6458 74.783 17.7514C74.9229 17.8539 75.1001 17.9092 75.3129 17.9092C75.611 17.9092 76.0418 17.8091 76.6132 17.6052L76.7559 20.0674C76.0009 20.3829 75.1568 20.5406 74.2203 20.5406C73.6476 20.5406 73.1377 20.4444 72.687 20.2521C72.2361 20.0597 71.9107 19.8077 71.7145 19.5058C71.5153 19.1994 71.3885 18.7842 71.3283 18.263C71.286 17.8952 71.2839 17.1474 71.3409 16.0201L71.6056 10.7765H69.3086L70.3387 8.26044H71.7326L71.8526 5.88286L75.1281 4.01318L74.9138 8.26044H77.0965Z" fill="white"/>
<path fill-rule="evenodd" clip-rule="evenodd" d="M119.051 12.0167L116.177 11.508C116.559 10.3364 117.164 9.46922 117.988 8.90645C118.813 8.34376 120.014 8.0625 121.587 8.0625C123.016 8.0625 124.076 8.22821 124.761 8.56348C125.443 8.89881 125.918 9.32279 126.178 9.83922C126.438 10.3556 126.539 11.2999 126.475 12.6797L126.256 16.3795C126.208 17.4317 126.222 18.2102 126.3 18.7113C126.378 19.2123 126.544 19.7481 126.798 20.3185H123.62C123.548 20.1103 123.457 19.802 123.355 19.3934C123.314 19.2046 123.28 19.0813 123.26 19.0235C122.69 19.5553 122.087 19.9523 121.452 20.2182C120.816 20.4842 120.148 20.6191 119.443 20.6191C118.2 20.6191 117.235 20.2838 116.549 19.6132C115.863 18.9464 115.544 18.0984 115.592 17.0733C115.623 16.3988 115.815 15.7938 116.167 15.2619C116.518 14.7339 116.993 14.3253 117.598 14.044C118.199 13.7626 119.06 13.516 120.179 13.304C121.688 13.0265 122.74 12.7644 123.327 12.5255L123.342 12.2056C123.371 11.5889 123.239 11.1496 122.948 10.8836C122.652 10.6216 122.082 10.4905 121.237 10.4905C120.664 10.4905 120.215 10.6023 119.885 10.8297C119.552 11.0532 119.276 11.4502 119.051 12.0167ZM123.232 14.5836C122.817 14.7185 122.159 14.8803 121.258 15.0692C120.361 15.258 119.769 15.443 119.488 15.6203C119.057 15.9171 118.83 16.2871 118.809 16.738C118.788 17.185 118.938 17.5666 119.258 17.8904C119.578 18.2141 119.995 18.376 120.513 18.376C121.089 18.376 121.651 18.1871 122.194 17.8133C122.593 17.5243 122.866 17.1774 123.006 16.7611C123.101 16.4913 123.167 15.9749 123.203 15.2156L123.232 14.5836Z" fill="white"/>
<path fill-rule="evenodd" clip-rule="evenodd" d="M81.7334 20.3186L82.5015 3.76147H85.7028L84.9347 20.3186H81.7334Z" fill="white"/>
<path fill-rule="evenodd" clip-rule="evenodd" d="M33.9955 6.69827L37.3331 3.76147L37.1969 6.69827H33.9955ZM33.3638 20.3186L33.9204 8.317H37.1218L36.5651 20.3186H33.3638Z" fill="white"/>
</svg>
