<svg width="18" height="18" viewBox="0 0 18 18" fill="none" xmlns="http://www.w3.org/2000/svg">
<g clip-path="url(#clip0_8061_5157)">
<path fill-rule="evenodd" clip-rule="evenodd" d="M4.6286 1.84767L4.64765 1.8489C5.02241 1.87996 5.34791 2.0662 5.64504 2.35652C6.2097 2.90801 7.42221 4.51732 7.51376 4.95529C7.61507 5.44388 7.50675 5.76121 7.18382 6.32257L7.10555 6.46091C6.95736 6.73157 6.93471 6.84332 6.98059 6.97129C7.68566 8.69688 8.88884 9.89988 10.5947 10.5966C10.7563 10.6551 10.8783 10.6216 11.2197 10.4257L11.3978 10.325C11.8778 10.0617 12.182 9.97849 12.6306 10.0719C13.067 10.1634 14.6773 11.3767 15.2279 11.9406C15.5178 12.2374 15.7045 12.5635 15.737 12.963C15.7712 13.9339 14.5866 15.3009 13.8639 15.7119C13.042 16.2998 11.9991 16.2901 10.8297 15.7458C7.77161 14.4733 3.09386 9.82543 1.84727 6.77115L1.77265 6.6003C1.29931 5.46897 1.30956 4.49157 1.85199 3.7547C2.34694 2.93503 3.68141 1.80386 4.6286 1.84767ZM4.57094 2.89372L4.50788 2.89695C4.02173 2.96154 3.04682 3.80086 2.72215 4.3347L2.66606 4.41817C2.38637 4.87386 2.41879 5.49967 2.80819 6.35654L2.88261 6.53074C4.13843 9.34923 8.48657 13.637 11.2514 14.788L11.4037 14.8557C12.2037 15.1948 12.8092 15.1797 13.2995 14.8321L13.3357 14.8088C13.4874 14.7034 13.8373 14.3855 14.1067 14.0746C14.4852 13.6378 14.6996 13.2377 14.6927 13.0247C14.6851 12.9336 14.6148 12.8107 14.4794 12.672C14.07 12.2528 12.5813 11.1311 12.4168 11.0966C12.2612 11.0642 12.1335 11.1078 11.7843 11.3086L11.6086 11.4073C11.0941 11.6848 10.7314 11.7593 10.219 11.5733C8.23318 10.7628 6.82338 9.35321 6.00427 7.34739C5.81025 6.81108 5.91469 6.43164 6.25209 5.84359L6.33248 5.70216C6.48575 5.42541 6.51819 5.30799 6.48931 5.1687C6.45473 5.00327 5.33371 3.51539 4.91393 3.1054C4.77492 2.96958 4.65278 2.8997 4.56137 2.89212L4.57094 2.89372Z" fill="#333335"/>
</g>
<defs>
<clipPath id="clip0_8061_5157">
<rect width="17.1685" height="16.3291" fill="white" transform="translate(0 0.835449)"/>
</clipPath>
</defs>
</svg>
