<svg width="44" height="45" viewBox="0 0 44 45" fill="none" xmlns="http://www.w3.org/2000/svg">
<path d="M22.0018 20.5461C21.8209 20.528 21.6038 20.528 21.4047 20.5461C17.0987 20.4013 13.6792 16.8733 13.6792 12.5311C13.6792 8.09837 17.2615 4.49794 21.7123 4.49794C26.145 4.49794 29.7454 8.09837 29.7454 12.5311C29.7273 16.8733 26.3078 20.4013 22.0018 20.5461Z" stroke="#888F95" stroke-width="1.5" stroke-linecap="round" stroke-linejoin="round"/>
<path d="M12.9557 27.2225C8.57727 30.1535 8.57727 34.9299 12.9557 37.8429C17.9311 41.1719 26.0909 41.1719 31.0664 37.8429C35.4448 34.9119 35.4448 30.1354 31.0664 27.2225C26.109 23.9116 17.9492 23.9116 12.9557 27.2225Z" stroke="#888F95" stroke-width="1.5" stroke-linecap="round" stroke-linejoin="round"/>
</svg>
